<mxfile host="app.diagrams.net" modified="2024-05-14T19:14:05.736Z" agent="Mozilla/5.0 (X11; Linux x86_64; rv:123.0) Gecko/20100101 Firefox/123.0" etag="0uQP0KkoBHwv7XMpXJ1p" version="24.4.0" type="github" pages="2">
  <diagram name="Architecture Diagram" id="aJF8iXu7WJTeNc_nVeRT">
    <mxGraphModel dx="2074" dy="3426" grid="1" gridSize="10" guides="1" tooltips="1" connect="1" arrows="1" fold="1" page="1" pageScale="1" pageWidth="827" pageHeight="1169" math="0" shadow="0">
      <root>
        <mxCell id="0" />
        <mxCell id="1" parent="0" />
        <mxCell id="f37ZJj0yvxwRvVF-i2d--10" value="" style="rounded=0;whiteSpace=wrap;html=1;" parent="1" vertex="1">
          <mxGeometry x="29" y="-2310" width="770" height="480" as="geometry" />
        </mxCell>
        <mxCell id="f37ZJj0yvxwRvVF-i2d--4" value="Client" style="text;strokeColor=none;fillColor=none;html=1;fontSize=24;fontStyle=1;verticalAlign=middle;align=center;" parent="1" vertex="1">
          <mxGeometry x="135" y="-2300" width="100" height="40" as="geometry" />
        </mxCell>
        <mxCell id="f37ZJj0yvxwRvVF-i2d--7" value="Server" style="text;strokeColor=none;fillColor=none;html=1;fontSize=24;fontStyle=1;verticalAlign=middle;align=center;" parent="1" vertex="1">
          <mxGeometry x="497.5" y="-2300" width="100" height="40" as="geometry" />
        </mxCell>
        <mxCell id="f37ZJj0yvxwRvVF-i2d--36" style="edgeStyle=orthogonalEdgeStyle;rounded=0;orthogonalLoop=1;jettySize=auto;html=1;exitX=1;exitY=0.5;exitDx=0;exitDy=0;" parent="1" source="f37ZJj0yvxwRvVF-i2d--9" target="f37ZJj0yvxwRvVF-i2d--11" edge="1">
          <mxGeometry relative="1" as="geometry" />
        </mxCell>
        <mxCell id="f37ZJj0yvxwRvVF-i2d--9" value="" style="rounded=0;whiteSpace=wrap;html=1;fillColor=#dae8fc;strokeColor=#6c8ebf;" parent="1" vertex="1">
          <mxGeometry x="100" y="-2245" width="170" height="350" as="geometry" />
        </mxCell>
        <mxCell id="f37ZJj0yvxwRvVF-i2d--11" value="" style="rounded=0;whiteSpace=wrap;html=1;fillColor=#d5e8d4;strokeColor=#82b366;" parent="1" vertex="1">
          <mxGeometry x="335" y="-2245" width="425" height="350" as="geometry" />
        </mxCell>
        <mxCell id="f37ZJj0yvxwRvVF-i2d--34" style="edgeStyle=orthogonalEdgeStyle;rounded=0;orthogonalLoop=1;jettySize=auto;html=1;exitX=0.25;exitY=0;exitDx=0;exitDy=0;exitPerimeter=0;" parent="1" source="f37ZJj0yvxwRvVF-i2d--12" target="f37ZJj0yvxwRvVF-i2d--28" edge="1">
          <mxGeometry relative="1" as="geometry">
            <Array as="points">
              <mxPoint x="110" y="-1910" />
              <mxPoint x="110" y="-2150" />
            </Array>
          </mxGeometry>
        </mxCell>
        <mxCell id="f37ZJj0yvxwRvVF-i2d--35" style="edgeStyle=orthogonalEdgeStyle;rounded=0;orthogonalLoop=1;jettySize=auto;html=1;exitX=0.75;exitY=0;exitDx=0;exitDy=0;exitPerimeter=0;" parent="1" source="f37ZJj0yvxwRvVF-i2d--12" target="f37ZJj0yvxwRvVF-i2d--30" edge="1">
          <mxGeometry relative="1" as="geometry">
            <Array as="points">
              <mxPoint x="260" y="-1910" />
              <mxPoint x="260" y="-2005" />
            </Array>
          </mxGeometry>
        </mxCell>
        <mxCell id="f37ZJj0yvxwRvVF-i2d--12" value="User" style="html=1;whiteSpace=wrap;strokeColor=none;fillColor=#0079D6;labelPosition=center;verticalLabelPosition=middle;verticalAlign=top;align=center;fontSize=12;outlineConnect=0;spacingTop=-6;fontColor=#FFFFFF;sketch=0;shape=mxgraph.sitemap.user;" parent="1" vertex="1">
          <mxGeometry x="125" y="-1910" width="120" height="70" as="geometry" />
        </mxCell>
        <mxCell id="f37ZJj0yvxwRvVF-i2d--17" value="" style="image;html=1;image=img/lib/clip_art/networking/Cloud_Server_128x128.png" parent="1" vertex="1">
          <mxGeometry x="360" y="-2130" width="156" height="150" as="geometry" />
        </mxCell>
        <mxCell id="f37ZJj0yvxwRvVF-i2d--18" value="" style="image;aspect=fixed;perimeter=ellipsePerimeter;html=1;align=center;shadow=0;dashed=0;spacingTop=3;image=img/lib/active_directory/database_server.svg;" parent="1" vertex="1">
          <mxGeometry x="610" y="-2155" width="139.4" height="170" as="geometry" />
        </mxCell>
        <mxCell id="f37ZJj0yvxwRvVF-i2d--19" value="Application &lt;br&gt;Backend" style="text;strokeColor=none;fillColor=none;html=1;fontSize=24;fontStyle=1;verticalAlign=middle;align=center;" parent="1" vertex="1">
          <mxGeometry x="388" y="-2170" width="100" height="40" as="geometry" />
        </mxCell>
        <mxCell id="f37ZJj0yvxwRvVF-i2d--20" value="Database&lt;br&gt;Server" style="text;strokeColor=none;fillColor=none;html=1;fontSize=24;fontStyle=1;verticalAlign=middle;align=center;" parent="1" vertex="1">
          <mxGeometry x="610" y="-2210" width="100" height="40" as="geometry" />
        </mxCell>
        <mxCell id="f37ZJj0yvxwRvVF-i2d--25" value="" style="shape=doubleArrow;whiteSpace=wrap;html=1;" parent="1" vertex="1">
          <mxGeometry x="530" y="-2100" width="70" height="60" as="geometry" />
        </mxCell>
        <mxCell id="f37ZJj0yvxwRvVF-i2d--28" value="" style="sketch=0;outlineConnect=0;fontColor=#232F3E;gradientColor=none;fillColor=#232F3D;strokeColor=none;dashed=0;verticalLabelPosition=bottom;verticalAlign=top;align=center;html=1;fontSize=12;fontStyle=0;aspect=fixed;pointerEvents=1;shape=mxgraph.aws4.mobile_client;" parent="1" vertex="1">
          <mxGeometry x="159.24" y="-2199" width="51.51" height="98" as="geometry" />
        </mxCell>
        <mxCell id="f37ZJj0yvxwRvVF-i2d--29" value="Mobile" style="text;strokeColor=none;fillColor=none;html=1;fontSize=24;fontStyle=1;verticalAlign=middle;align=center;" parent="1" vertex="1">
          <mxGeometry x="135" y="-2239" width="100" height="40" as="geometry" />
        </mxCell>
        <mxCell id="f37ZJj0yvxwRvVF-i2d--30" value="" style="fontColor=#0066CC;verticalAlign=top;verticalLabelPosition=bottom;labelPosition=center;align=center;html=1;outlineConnect=0;fillColor=#CCCCCC;strokeColor=#6881B3;gradientColor=none;gradientDirection=north;strokeWidth=2;shape=mxgraph.networks.pc;" parent="1" vertex="1">
          <mxGeometry x="135" y="-2040" width="100" height="70" as="geometry" />
        </mxCell>
        <mxCell id="f37ZJj0yvxwRvVF-i2d--31" value="Desktop" style="text;strokeColor=none;fillColor=none;html=1;fontSize=24;fontStyle=1;verticalAlign=middle;align=center;" parent="1" vertex="1">
          <mxGeometry x="135" y="-2080" width="100" height="40" as="geometry" />
        </mxCell>
      </root>
    </mxGraphModel>
  </diagram>
  <diagram id="BF-OA70fZNa3Auy5Z6rA" name="In Depth Diagram">
    <mxGraphModel dx="1185" dy="622" grid="1" gridSize="10" guides="1" tooltips="1" connect="1" arrows="1" fold="1" page="1" pageScale="1" pageWidth="827" pageHeight="1169" math="0" shadow="0">
      <root>
        <mxCell id="0" />
        <mxCell id="1" parent="0" />
        <mxCell id="OkG-edBzu0FnZzq1xlGt-1" value="Client" style="swimlane;fillColor=#60a917;fontColor=#ffffff;strokeColor=#2D7600;" parent="1" vertex="1">
          <mxGeometry x="50" y="50" width="350" height="340" as="geometry" />
        </mxCell>
        <mxCell id="OkG-edBzu0FnZzq1xlGt-2" value="" style="swimlane;startSize=0;fillColor=#60a917;fontColor=#ffffff;strokeColor=#2D7600;" parent="OkG-edBzu0FnZzq1xlGt-1" vertex="1">
          <mxGeometry x="50" y="60" width="80" height="70" as="geometry">
            <mxRectangle x="310" y="230" width="50" height="40" as="alternateBounds" />
          </mxGeometry>
        </mxCell>
        <mxCell id="OkG-edBzu0FnZzq1xlGt-3" value="Client App 1" style="text;html=1;strokeColor=#82b366;fillColor=#d5e8d4;align=center;verticalAlign=middle;whiteSpace=wrap;rounded=0;" parent="OkG-edBzu0FnZzq1xlGt-2" vertex="1">
          <mxGeometry x="10" y="5" width="60" height="60" as="geometry" />
        </mxCell>
        <mxCell id="OkG-edBzu0FnZzq1xlGt-4" value="" style="swimlane;startSize=0;fillColor=#60a917;fontColor=#ffffff;strokeColor=#2D7600;" parent="OkG-edBzu0FnZzq1xlGt-1" vertex="1">
          <mxGeometry x="50" y="150" width="80" height="70" as="geometry">
            <mxRectangle x="310" y="230" width="50" height="40" as="alternateBounds" />
          </mxGeometry>
        </mxCell>
        <mxCell id="OkG-edBzu0FnZzq1xlGt-5" value="Client App 2" style="text;html=1;strokeColor=#82b366;fillColor=#d5e8d4;align=center;verticalAlign=middle;whiteSpace=wrap;rounded=0;" parent="OkG-edBzu0FnZzq1xlGt-4" vertex="1">
          <mxGeometry x="10" y="5" width="60" height="60" as="geometry" />
        </mxCell>
        <mxCell id="OkG-edBzu0FnZzq1xlGt-6" value="" style="swimlane;startSize=0;fillColor=#60a917;fontColor=#ffffff;strokeColor=#2D7600;" parent="OkG-edBzu0FnZzq1xlGt-1" vertex="1">
          <mxGeometry x="50" y="240" width="80" height="70" as="geometry">
            <mxRectangle x="310" y="230" width="50" height="40" as="alternateBounds" />
          </mxGeometry>
        </mxCell>
        <mxCell id="OkG-edBzu0FnZzq1xlGt-7" value="Client App 3" style="text;html=1;strokeColor=#82b366;fillColor=#d5e8d4;align=center;verticalAlign=middle;whiteSpace=wrap;rounded=0;" parent="OkG-edBzu0FnZzq1xlGt-6" vertex="1">
          <mxGeometry x="10" y="5" width="60" height="60" as="geometry" />
        </mxCell>
        <mxCell id="gy4O6nEZ6fukEYtf1kl1-1" value="HTTP Request" style="shape=singleArrow;whiteSpace=wrap;html=1;" parent="OkG-edBzu0FnZzq1xlGt-1" vertex="1">
          <mxGeometry x="130" y="70" width="90" height="90" as="geometry" />
        </mxCell>
        <mxCell id="gy4O6nEZ6fukEYtf1kl1-2" value="HTML Response" style="shape=singleArrow;direction=west;whiteSpace=wrap;html=1;" parent="OkG-edBzu0FnZzq1xlGt-1" vertex="1">
          <mxGeometry x="125" y="200" width="90" height="100" as="geometry" />
        </mxCell>
        <mxCell id="gy4O6nEZ6fukEYtf1kl1-7" value="Frontend" style="text;strokeColor=none;fillColor=none;html=1;fontSize=24;fontStyle=1;verticalAlign=middle;align=center;" parent="OkG-edBzu0FnZzq1xlGt-1" vertex="1">
          <mxGeometry x="120" y="30" width="100" height="40" as="geometry" />
        </mxCell>
        <mxCell id="gy4O6nEZ6fukEYtf1kl1-3" value="JSON" style="shape=singleArrow;whiteSpace=wrap;html=1;" parent="OkG-edBzu0FnZzq1xlGt-1" vertex="1">
          <mxGeometry x="300" y="100" width="113.5" height="40" as="geometry" />
        </mxCell>
        <mxCell id="OkG-edBzu0FnZzq1xlGt-9" value="Server" style="swimlane;fillColor=#1ba1e2;fontColor=#ffffff;strokeColor=#006EAF;" parent="1" vertex="1">
          <mxGeometry x="414" y="50" width="390" height="340" as="geometry" />
        </mxCell>
        <mxCell id="gy4O6nEZ6fukEYtf1kl1-5" value="" style="swimlane;startSize=0;fillColor=#dae8fc;strokeColor=#6c8ebf;" parent="OkG-edBzu0FnZzq1xlGt-9" vertex="1">
          <mxGeometry x="45" y="60" width="300" height="250" as="geometry">
            <mxRectangle x="310" y="230" width="50" height="40" as="alternateBounds" />
          </mxGeometry>
        </mxCell>
        <mxCell id="KdCBGV-GVBtNKYAFIrcF-7" value="" style="swimlane;startSize=0;fillColor=#dae8fc;strokeColor=#6c8ebf;" parent="gy4O6nEZ6fukEYtf1kl1-5" vertex="1">
          <mxGeometry x="15" y="10" width="90" height="230" as="geometry">
            <mxRectangle x="310" y="230" width="50" height="40" as="alternateBounds" />
          </mxGeometry>
        </mxCell>
        <mxCell id="KdCBGV-GVBtNKYAFIrcF-8" value="API Web Service" style="text;strokeColor=none;fillColor=none;html=1;fontSize=24;fontStyle=1;verticalAlign=middle;align=center;rotation=90;" parent="KdCBGV-GVBtNKYAFIrcF-7" vertex="1">
          <mxGeometry x="-5" y="105" width="100" height="40" as="geometry" />
        </mxCell>
        <mxCell id="OkG-edBzu0FnZzq1xlGt-10" value="" style="swimlane;startSize=0;fillColor=#dae8fc;strokeColor=#6c8ebf;" parent="gy4O6nEZ6fukEYtf1kl1-5" vertex="1">
          <mxGeometry x="135" y="10" width="140" height="230" as="geometry">
            <mxRectangle x="310" y="230" width="50" height="40" as="alternateBounds" />
          </mxGeometry>
        </mxCell>
        <mxCell id="KdCBGV-GVBtNKYAFIrcF-6" value="" style="shape=cylinder3;whiteSpace=wrap;html=1;boundedLbl=1;backgroundOutline=1;size=15;" parent="OkG-edBzu0FnZzq1xlGt-10" vertex="1">
          <mxGeometry x="40" y="105" width="60" height="80" as="geometry" />
        </mxCell>
        <mxCell id="KdCBGV-GVBtNKYAFIrcF-10" value="PostgreSQL&lt;br&gt;Database" style="text;strokeColor=none;fillColor=none;html=1;fontSize=24;fontStyle=1;verticalAlign=middle;align=center;" parent="OkG-edBzu0FnZzq1xlGt-10" vertex="1">
          <mxGeometry x="20" y="30" width="100" height="40" as="geometry" />
        </mxCell>
        <mxCell id="KdCBGV-GVBtNKYAFIrcF-19" value="" style="shape=doubleArrow;whiteSpace=wrap;html=1;" parent="gy4O6nEZ6fukEYtf1kl1-5" vertex="1">
          <mxGeometry x="95" y="95" width="50" height="60" as="geometry" />
        </mxCell>
        <mxCell id="gy4O6nEZ6fukEYtf1kl1-8" value="Backend" style="text;strokeColor=none;fillColor=none;html=1;fontSize=24;fontStyle=1;verticalAlign=middle;align=center;" parent="OkG-edBzu0FnZzq1xlGt-9" vertex="1">
          <mxGeometry x="136" y="30" width="100" height="40" as="geometry" />
        </mxCell>
        <mxCell id="ZbDzZ6bMi9R18udeJZAA-4" value="" style="swimlane;startSize=0;fillColor=#d5e8d4;strokeColor=#82b366;" parent="1" vertex="1">
          <mxGeometry x="270" y="110" width="75" height="250" as="geometry">
            <mxRectangle x="310" y="230" width="50" height="40" as="alternateBounds" />
          </mxGeometry>
        </mxCell>
        <mxCell id="ZbDzZ6bMi9R18udeJZAA-5" value="Presentation Layer" style="text;strokeColor=none;fillColor=none;html=1;fontSize=24;fontStyle=1;verticalAlign=middle;align=center;rotation=90;" parent="ZbDzZ6bMi9R18udeJZAA-4" vertex="1">
          <mxGeometry x="-12.5" y="105" width="100" height="40" as="geometry" />
        </mxCell>
        <mxCell id="gy4O6nEZ6fukEYtf1kl1-4" value="JSON" style="shape=singleArrow;direction=west;whiteSpace=wrap;html=1;" parent="1" vertex="1">
          <mxGeometry x="350" y="240" width="120" height="40" as="geometry" />
        </mxCell>
      </root>
    </mxGraphModel>
  </diagram>
</mxfile>
